<mxfile host="app.diagrams.net" modified="2024-06-14T10:36:32.507Z" agent="Mozilla/5.0 (Windows NT 10.0; Win64; x64) AppleWebKit/537.36 (KHTML, like Gecko) Chrome/125.0.0.0 Safari/537.36" etag="AvDl1NenIM6M-l5b-2Yo" version="24.5.4" type="github">
  <diagram name="第 1 页" id="tFUduvtEyWRFyk-JxcQb">
    <mxGraphModel dx="2022" dy="615" grid="1" gridSize="10" guides="1" tooltips="1" connect="1" arrows="1" fold="1" page="1" pageScale="1" pageWidth="827" pageHeight="1169" math="0" shadow="0">
      <root>
        <mxCell id="0" />
        <mxCell id="1" parent="0" />
        <mxCell id="2iM-y9-Uij7viDu0NWAR-14" value="" style="rounded=0;whiteSpace=wrap;html=1;fillColor=#dae8fc;strokeColor=#6c8ebf;" vertex="1" parent="1">
          <mxGeometry x="630" width="310" height="350" as="geometry" />
        </mxCell>
        <mxCell id="2iM-y9-Uij7viDu0NWAR-13" value="" style="rounded=0;whiteSpace=wrap;html=1;fillColor=#f8cecc;strokeColor=#b85450;" vertex="1" parent="1">
          <mxGeometry x="250" width="310" height="350" as="geometry" />
        </mxCell>
        <mxCell id="2iM-y9-Uij7viDu0NWAR-12" value="" style="rounded=0;whiteSpace=wrap;html=1;fillColor=#dae8fc;strokeColor=#6c8ebf;" vertex="1" parent="1">
          <mxGeometry x="-110" width="310" height="350" as="geometry" />
        </mxCell>
        <mxCell id="2iM-y9-Uij7viDu0NWAR-15" style="edgeStyle=orthogonalEdgeStyle;rounded=0;orthogonalLoop=1;jettySize=auto;html=1;entryX=0;entryY=0.5;entryDx=0;entryDy=0;startArrow=classic;startFill=1;" edge="1" parent="1" source="2iM-y9-Uij7viDu0NWAR-1" target="2iM-y9-Uij7viDu0NWAR-2">
          <mxGeometry relative="1" as="geometry" />
        </mxCell>
        <mxCell id="2iM-y9-Uij7viDu0NWAR-1" value="allowed ips&lt;div&gt;10.0.0.2&lt;/div&gt;&lt;div&gt;10.254.2.0/24&lt;/div&gt;" style="rounded=0;whiteSpace=wrap;html=1;" vertex="1" parent="1">
          <mxGeometry x="-50" y="220" width="200" height="90" as="geometry" />
        </mxCell>
        <mxCell id="2iM-y9-Uij7viDu0NWAR-2" value="allowed ips&lt;div&gt;10.0.0.3&lt;/div&gt;&lt;div&gt;10.254.1.0/24&lt;br&gt;&lt;/div&gt;" style="rounded=0;whiteSpace=wrap;html=1;" vertex="1" parent="1">
          <mxGeometry x="290" y="220" width="120" height="90" as="geometry" />
        </mxCell>
        <mxCell id="2iM-y9-Uij7viDu0NWAR-16" style="edgeStyle=orthogonalEdgeStyle;rounded=0;orthogonalLoop=1;jettySize=auto;html=1;startArrow=classic;startFill=1;" edge="1" parent="1" source="2iM-y9-Uij7viDu0NWAR-3" target="2iM-y9-Uij7viDu0NWAR-11">
          <mxGeometry relative="1" as="geometry" />
        </mxCell>
        <mxCell id="2iM-y9-Uij7viDu0NWAR-3" value="allowed ips&lt;div&gt;10.0.0.3&lt;/div&gt;&lt;div&gt;10.254.1.0/24&lt;/div&gt;" style="rounded=0;whiteSpace=wrap;html=1;" vertex="1" parent="1">
          <mxGeometry x="685" y="215" width="200" height="100" as="geometry" />
        </mxCell>
        <mxCell id="2iM-y9-Uij7viDu0NWAR-9" style="edgeStyle=orthogonalEdgeStyle;rounded=0;orthogonalLoop=1;jettySize=auto;html=1;entryX=0;entryY=0.5;entryDx=0;entryDy=0;dashed=1;startArrow=classic;startFill=1;strokeWidth=2;" edge="1" parent="1" source="2iM-y9-Uij7viDu0NWAR-4" target="2iM-y9-Uij7viDu0NWAR-5">
          <mxGeometry relative="1" as="geometry" />
        </mxCell>
        <mxCell id="2iM-y9-Uij7viDu0NWAR-4" value="Route A&lt;div&gt;channl ip:10.0.0.3&lt;/div&gt;&lt;div&gt;virtual ip&lt;span style=&quot;background-color: initial;&quot;&gt;10.254.1.0/24&lt;/span&gt;&lt;/div&gt;" style="rounded=0;whiteSpace=wrap;html=1;" vertex="1" parent="1">
          <mxGeometry x="-40" y="35" width="190" height="60" as="geometry" />
        </mxCell>
        <mxCell id="2iM-y9-Uij7viDu0NWAR-10" style="edgeStyle=orthogonalEdgeStyle;rounded=0;orthogonalLoop=1;jettySize=auto;html=1;entryX=0;entryY=0.5;entryDx=0;entryDy=0;dashed=1;startArrow=classic;startFill=1;strokeWidth=2;" edge="1" parent="1" source="2iM-y9-Uij7viDu0NWAR-5" target="2iM-y9-Uij7viDu0NWAR-6">
          <mxGeometry relative="1" as="geometry" />
        </mxCell>
        <mxCell id="2iM-y9-Uij7viDu0NWAR-5" value="Cloud Gateway&lt;div&gt;&lt;div&gt;channl ip:10.0.0.1&lt;/div&gt;&lt;/div&gt;" style="rounded=0;whiteSpace=wrap;html=1;" vertex="1" parent="1">
          <mxGeometry x="348" y="35" width="120" height="60" as="geometry" />
        </mxCell>
        <mxCell id="2iM-y9-Uij7viDu0NWAR-6" value="RouteB&lt;div&gt;&lt;div&gt;channl ip:10.0.0.2&lt;/div&gt;&lt;div&gt;virtual ip:&amp;nbsp;&lt;span style=&quot;background-color: initial;&quot;&gt;10.254.2.0/24&lt;/span&gt;&lt;/div&gt;&lt;/div&gt;" style="rounded=0;whiteSpace=wrap;html=1;" vertex="1" parent="1">
          <mxGeometry x="690" y="20" width="190" height="90" as="geometry" />
        </mxCell>
        <mxCell id="2iM-y9-Uij7viDu0NWAR-11" value="allowed ips&lt;div&gt;10.0.0.2&lt;/div&gt;&lt;div&gt;10.254.2.0/24&lt;br&gt;&lt;/div&gt;" style="rounded=0;whiteSpace=wrap;html=1;" vertex="1" parent="1">
          <mxGeometry x="410" y="220" width="120" height="90" as="geometry" />
        </mxCell>
        <mxCell id="2iM-y9-Uij7viDu0NWAR-17" style="edgeStyle=orthogonalEdgeStyle;rounded=0;orthogonalLoop=1;jettySize=auto;html=1;entryX=0.542;entryY=1.009;entryDx=0;entryDy=0;entryPerimeter=0;strokeWidth=2;fillColor=#008a00;strokeColor=#00cc00;startArrow=block;startFill=1;" edge="1" parent="1" source="2iM-y9-Uij7viDu0NWAR-4" target="2iM-y9-Uij7viDu0NWAR-6">
          <mxGeometry relative="1" as="geometry">
            <Array as="points">
              <mxPoint x="55" y="130" />
              <mxPoint x="793" y="130" />
            </Array>
          </mxGeometry>
        </mxCell>
        <mxCell id="2iM-y9-Uij7viDu0NWAR-18" value="Peer to Peer" style="text;html=1;align=center;verticalAlign=middle;whiteSpace=wrap;rounded=0;" vertex="1" parent="1">
          <mxGeometry x="170" y="270" width="100" height="30" as="geometry" />
        </mxCell>
        <mxCell id="2iM-y9-Uij7viDu0NWAR-19" value="Peer to Peer" style="text;html=1;align=center;verticalAlign=middle;whiteSpace=wrap;rounded=0;" vertex="1" parent="1">
          <mxGeometry x="560" y="270" width="100" height="30" as="geometry" />
        </mxCell>
      </root>
    </mxGraphModel>
  </diagram>
</mxfile>
